<svg id="Capa_1" enable-background="new 0 0 512 512" height="512" viewBox="0 0 512 512" width="512" xmlns="http://www.w3.org/2000/svg"><g><path d="m459.738 101-26.795-30c-45.97-43.98-108.3-71-176.943-71-103.966 0-193.454 61.978-233.54 151l-11.286 30c-7.258 23.721-11.174 48.902-11.174 75 0 29.8 5.109 58.401 14.47 85l12.769 30c42.122 83.626 128.736 141 228.761 141 4.574 0 9.119-.125 13.634-.362l211.838-134.313c17.237-31.966 27.865-68.016 30.08-106.325v-30c-3.033-52.469-21.865-100.694-51.814-140z" fill="#f1f1f4"/><g fill="#e2dff4"><path d="m269.634 511.638 211.838-134.313c17.237-31.966 27.865-68.016 30.08-106.325v-30c-3.033-52.469-21.864-100.694-51.813-140l-26.795-30c-45.971-43.98-108.301-71-176.944-71v512c4.574 0 9.119-.125 13.634-.362z"/><path d="m125 356c0-8.284-6.716-15-15-15h-95.53c3.631 10.319 7.901 20.335 12.769 30h82.761c8.284 0 15-6.716 15-15z"/><path d="m159 166c0-8.284-6.716-15-15-15h-121.54c-4.365 9.693-8.137 19.71-11.286 30h132.826c8.284 0 15-6.716 15-15z"/><path d="m242 86c0 8.284 6.716 15 15 15h202.738c-8.145-10.689-17.101-20.725-26.795-30h-175.943c-8.284 0-15 6.716-15 15z"/><path d="m436 166c0-8.284-6.716-15-15-15h-219c-8.284 0-15 6.716-15 15s6.716 15 15 15h219c8.284 0 15-6.716 15-15z"/></g><path d="m390 211h-58c-8.284 0-15 6.716-15 15s6.716 15 15 15h58c8.284 0 15-6.716 15-15s-6.716-15-15-15z" fill="#bebcdd"/><path d="m144 251h-68c-8.284 0-15 6.716-15 15s6.716 15 15 15h68c8.284 0 15-6.716 15-15s-6.716-15-15-15z" fill="#e2dff4"/><path d="m511.551 241h-65.551c-8.284 0-15 6.716-15 15s6.716 15 15 15h65.551c.287-4.965.449-9.963.449-15s-.162-10.035-.449-15z" fill="#bebcdd"/><path d="m465.033 352.479c-13.876-13.875-32.32-21.671-51.937-21.95-11.603-.173-22.891 2.31-33.119 7.148-5.217-13.566-13.233-25.913-23.731-36.411-40.938-40.938-107.552-40.939-148.492 0-19.832 19.832-30.754 46.2-30.753 74.246 0 28.047 10.922 54.415 30.754 74.246l61.879 61.879 37.647-4.779c59.621-12.123 111.7-44.975 148.416-90.694l25.775-38.84c-3.562-8.812-8.853-17.082-15.895-24.272-.176-.195-.357-.386-.544-.573z" fill="#e2dff4"/><path d="m465.577 353.053c-.176-.195-.357-.387-.544-.573-13.876-13.875-32.32-21.671-51.937-21.95-11.603-.173-22.891 2.31-33.119 7.148-5.217-13.566-13.233-25.913-23.731-36.411-27.123-27.123-65.516-36.27-100.246-27.453v224.189l13.634 13.634 37.647-4.779c59.621-12.123 111.7-44.975 148.416-90.694l25.775-38.84c-3.562-8.811-8.853-17.081-15.895-24.271z" fill="#bebcdd"/><path d="m459.738 101c-8.145-10.689-17.101-20.725-26.795-30h-175.943c-.338 0-.668.029-1 .051v29.899c.332.022.662.051 1 .051h202.738z" fill="#bebcdd"/><path d="m436 166c0-8.284-6.716-15-15-15h-165v30h165c8.284 0 15-6.716 15-15z" fill="#bebcdd"/></g></svg>