<svg id="Capa_1" enable-background="new 0 0 512 512" height="512" viewBox="0 0 512 512" width="512" xmlns="http://www.w3.org/2000/svg"><g><path d="m509.608 291c1.565-11.445 2.392-23.125 2.392-35 0-8.436-.42-16.773-1.217-25l-4.725-30c-3.808-17.393-9.37-34.129-16.517-50l-16.01-30c-45.175-72.636-125.698-121-217.531-121-63.271 0-121.17 22.966-165.846 61l-29.869 30c-7.967 9.441-15.263 19.464-21.815 30l-16.01 30c-7.147 15.871-12.709 32.607-16.517 50l-4.725 30c-.798 8.227-1.218 16.564-1.218 25 0 1.672.031 3.336.063 5l2.329 30c3.366 24.619 10.219 48.128 20.068 70l16.01 30c6.553 10.536 13.848 20.559 21.815 30l29.869 30c44.676 38.034 102.575 61 165.846 61s121.17-22.966 165.846-61l29.869-30c7.967-9.441 15.263-19.464 21.815-30l16.01-30c5.767-12.807 10.506-26.177 14.124-40z" fill="#ffed28"/><path d="m510.783 231-4.725-30c-3.808-17.393-9.37-34.129-16.517-50l-16.01-30c-45.175-72.636-125.698-121-217.531-121v512c63.271 0 121.17-22.966 165.846-61l29.869-30c7.967-9.441 15.263-19.464 21.815-30l16.01-30c5.767-12.807 10.506-26.177 14.124-40l5.944-30c1.565-11.445 2.392-23.125 2.392-35 0-8.436-.42-16.773-1.217-25z" fill="#ffcd00"/><path d="m186 151h90c8.284 0 15-6.716 15-15s-6.716-15-15-15h-90c-8.284 0-15 6.716-15 15s6.716 15 15 15z" fill="#ffcd00"/><path d="m256 91h60c8.284 0 15-6.716 15-15s-6.716-15-15-15h-60c-8.284 0-15 6.716-15 15s6.716 15 15 15z" fill="#ffcd00"/><path d="m226 241c-42.056 0-75 24.159-75 55s32.944 55 75 55 75-24.159 75-55-32.944-55-75-55z" fill="#ffcd00"/><path d="m321 136c0 8.284 6.716 15 15 15h153.54c-4.678-10.39-10.041-20.403-16.01-30h-137.53c-8.284 0-15 6.716-15 15z" fill="#ff9f22"/><path d="m211 76c0-8.284-6.716-15-15-15h-105.846c-10.762 9.162-20.753 19.198-29.869 30h135.715c8.284 0 15-6.716 15-15z" fill="#ffcd00"/><path d="m194.819 218.361c9.632-4.816 20.414-7.361 31.181-7.361s21.549 2.545 31.181 7.36c16.537 8.27 35.051 12.64 53.541 12.64h200.061c-.988-10.188-2.579-20.197-4.725-30h-195.337c-13.856 0-27.731-3.275-40.125-9.473-13.775-6.886-29.197-10.527-44.596-10.527s-30.821 3.641-44.597 10.528c-12.393 6.197-26.268 9.472-40.124 9.472h-135.336c-2.146 9.803-3.738 19.812-4.725 30h140.061c18.489 0 37.003-4.37 53.54-12.639z" fill="#ffcd00"/><path d="m257.18 373.639c-9.631 4.815-20.413 7.361-31.18 7.361s-21.549-2.546-31.181-7.362c-16.538-8.268-35.052-12.638-53.54-12.638h-118.819c4.678 10.39 10.041 20.403 16.01 30h102.809c13.856 0 27.731 3.275 40.124 9.471 13.775 6.888 29.197 10.529 44.597 10.529s30.822-3.641 44.596-10.528c12.394-6.196 26.269-9.472 40.125-9.472h162.809c5.969-9.597 11.331-19.61 16.01-30h-178.819c-18.488 0-37.002 4.37-53.541 12.639z" fill="#ffcd00"/><g fill="#ff9f22"><path d="m291 136c0-8.284-6.716-15-15-15h-20v30h20c8.284 0 15-6.716 15-15z"/><path d="m331 76c0-8.284-6.716-15-15-15h-60v30h60c8.284 0 15-6.716 15-15z"/><path d="m301 296c0-22.975-18.288-42.234-45-50.567v101.135c26.712-8.334 45-27.593 45-50.568z"/><path d="m310.721 231h200.061c-.988-10.188-2.579-20.197-4.725-30h-195.336c-13.856 0-27.731-3.275-40.125-9.473-4.695-2.347-9.585-4.308-14.597-5.885v32.149c.394.188.79.373 1.181.569 16.538 8.27 35.052 12.64 53.541 12.64z"/><path d="m257.18 373.639c-.391.195-.786.381-1.18.568v32.15c5.012-1.577 9.901-3.538 14.596-5.886 12.394-6.196 26.269-9.472 40.125-9.472h162.809c5.969-9.597 11.331-19.61 16.01-30h-178.819c-18.488.001-37.002 4.371-53.541 12.64z"/></g><path d="m121 276c0-8.284-6.716-15-15-15h-105.937c.195 10.156.984 20.166 2.329 30h103.608c8.284 0 15-6.716 15-15z" fill="#ffcd00"/><path d="m346 291c-8.284 0-15 6.716-15 15s6.716 15 15 15h157.664c2.561-9.783 4.549-19.797 5.944-30z" fill="#ff9f22"/><path d="m141 136c0-8.284-6.716-15-15-15h-87.531c-5.969 9.597-11.331 19.61-16.01 30h103.541c8.284 0 15-6.716 15-15z" fill="#ffcd00"/><path d="m301 436c0 8.284 6.716 15 15 15h105.846c10.762-9.162 20.753-19.198 29.869-30h-135.715c-8.284 0-15 6.716-15 15z" fill="#ff9f22"/><path d="m181 436c0-8.284-6.716-15-15-15h-105.715c9.116 10.802 19.107 20.838 29.869 30h75.846c8.284 0 15-6.716 15-15z" fill="#ffcd00"/></g></svg>