<svg id="Capa_1" enable-background="new 0 0 512 512" height="512" viewBox="0 0 512 512" width="512" xmlns="http://www.w3.org/2000/svg"><g><g><path d="m57.312 94.541c-18.779 23.022-33.218 48.836-42.906 76.432l-8.311 29.114c-4.024 18.151-6.095 36.872-6.095 55.913 0 25.975 3.852 51.355 11.268 75.5l10.474 28.079c12.617 28.51 30.532 54.733 53.239 77.441 1.087 1.087 2.191 2.15 3.294 3.214l23.114 19.837c44.266 33.682 98.033 51.929 154.611 51.929 57.76 0 112.6-19.002 157.382-54.045l25.31-22.649c21.7-22.099 38.927-47.441 51.208-74.934l10.742-28.586c6.264-20.308 10.008-41.493 11.053-63.174l-.464-32.554c-2.077-27.131-8.374-53.415-18.589-78.077l-15.313-30.804c-6.421-10.99-13.693-21.54-21.784-31.567l-20.423-22.482c-12.188-11.944-25.359-22.526-39.333-31.671l-26.279-15.046c-34.852-17.27-73.476-26.411-113.51-26.411-67.176 0-130.39 25.715-178.439 72.462z" fill="#ff7037"/><path d="m511.231 236.058c-2.077-27.131-8.374-53.415-18.589-78.077l-15.313-30.804c-6.421-10.99-13.693-21.54-21.784-31.567l-20.423-22.482c-12.188-11.944-25.359-22.526-39.333-31.671l-26.279-15.046c-34.852-17.27-73.476-26.411-113.51-26.411v512c57.76 0 112.6-19.002 157.382-54.045l25.31-22.649c21.7-22.099 38.927-47.441 51.208-74.934l10.742-28.586c6.264-20.308 10.008-41.493 11.053-63.174z" fill="#ff1f3e"/><g><circle cx="86" cy="266" fill="#ff1f3e" r="15"/></g><path d="m258.421 425.233c-8.364 2.968-18.124 2.912-27.483-.15-44.065-14.429-80.636-16.804-111.797-7.258-15.189 4.653-28.822 12.148-40.867 22.409 7.308 7.052 15.011 13.688 23.115 19.837 7.997-6.067 16.841-10.591 26.538-13.561 25.049-7.674 55.689-5.355 93.675 7.083 15.63 5.118 32.27 5.086 46.786-.063 45.481-15.905 95.72-8.152 121.62-2.115 8.532 1.989 16.355 4.222 23.375 6.541 8.947-6.981 17.372-14.562 25.31-22.649-13.936-5.672-30.065-10.621-47.223-14.306-27.985-6.011-82.473-13.454-133.049 4.232z" fill="#ff1f3e"/><path d="m268.388 453.529c45.481-15.905 95.72-8.152 121.62-2.115 8.532 1.989 16.355 4.222 23.375 6.541 8.947-6.981 17.372-14.562 25.31-22.649-13.936-5.672-30.065-10.621-47.223-14.306-27.984-6.01-82.473-13.453-133.049 4.233-.794.282-1.604.527-2.421.754v30.613c4.245-.641 8.398-1.656 12.388-3.071z" fill="#c9001c"/><path d="m484.841 329.419c-67.056-8.672-132.45.286-194.369 26.628-67.504 26.659-106.581-.209-120.255-13.009-6.22-5.821-32.638-23.263-71.136-26.923-23.387-2.227-47.493.832-71.649 9.083-5.368 1.833-10.791 3.952-16.164 6.302 2.961 9.61 6.449 18.989 10.474 28.079 24.673-11.051 49.092-15.694 72.885-13.742 34.041 2.793 54.24 18.442 55.216 19.223 7.882 7.35 24.826 20.584 50.538 27.595 31.095 8.479 65.181 5.523 101.309-8.783.12-.047.238-.096.356-.146 70.09-29.858 134.648-31.536 187.854-23.353 4.135-9.251 7.711-18.793 10.742-28.586-5.151-.875-10.45-1.676-15.801-2.368z" fill="#ff1f3e"/><path d="m290.472 356.047c-12.453 4.918-23.935 8.01-34.472 9.709v30.302c14.796-1.932 30.051-5.994 45.689-12.187.12-.047.238-.096.356-.146 70.09-29.858 134.648-31.536 187.854-23.353 4.135-9.251 7.711-18.793 10.742-28.586-5.151-.873-10.45-1.675-15.801-2.366-67.055-8.673-132.449.285-194.368 26.627z" fill="#c9001c"/><path d="m132.163 208.413c66.786-7.824 108.35-33.054 119.497-40.6 18.475-12.506 40.809-17.235 62.879-13.321.29.052.582.095.874.129 71.177 8.338 114.183-26.125 140.132-59.01-6.357-7.9-13.187-15.395-20.423-22.483-21.537 29.1-56.062 58.588-115.804 51.744-29.654-5.139-59.631 1.281-84.474 18.098-37.055 25.084-118.186 52.311-220.438 28.004-3.33 9.461-6.098 19.18-8.311 29.114 28.921 7.076 57.768 10.642 86.322 10.642 13.306-.001 26.562-.772 39.746-2.317z" fill="#ff1f3e"/><path d="m314.539 154.492c.29.052.582.095.874.129 71.177 8.338 114.183-26.125 140.132-59.01-6.357-7.9-13.187-15.395-20.423-22.483-21.537 29.1-56.062 58.588-115.804 51.744-21.642-3.75-43.453-1.337-63.317 6.774v33.435c17.577-10.434 38.166-14.202 58.538-10.589z" fill="#c9001c"/><path d="m144.918 130.036c41.936 0 75.861-21.28 90.433-30.421 14.696-9.22 31.294-12.844 46.748-10.206 26.157 4.464 53.101-.418 75.861-13.75 14.255-8.35 26.911-19.815 37.829-34.202-8.435-5.507-17.194-10.546-26.279-15.046-29.758 36.767-65.54 36.296-82.363 33.426-22.728-3.88-46.785 1.221-67.738 14.364-15.105 9.476-55.229 34.646-98.851 22.526-14.939-4.151-29.292-12.265-42.998-24.266-7.162 6.964-13.938 14.323-20.249 22.08 17.278 15.265 35.724 25.675 55.216 31.091 11.173 3.104 22.026 4.404 32.391 4.404z" fill="#ff1f3e"/><path d="m282.099 89.409c26.157 4.464 53.101-.418 75.861-13.75 14.255-8.35 26.911-19.815 37.829-34.202-8.435-5.507-17.194-10.546-26.279-15.046-29.758 36.767-65.54 36.296-82.363 33.426-10.248-1.75-20.765-1.656-31.147.16v30.659c8.707-2.242 17.576-2.701 26.099-1.247z" fill="#c9001c"/><path d="m511.232 236.058c-49.332 23.736-106.506 35.067-174.899 35.067-20.876 0-32.129-4.176-37.893-7.679-5.014-3.048-7.556-6.584-7.556-10.512 0-15.14 31.966-42.185 95.609-42.185.208.001.415.001.622.001 38.341 0 67.312-11.351 91.129-35.692 5.127-5.24 9.922-11.003 14.397-17.077-4.417-10.657-9.555-20.93-15.313-30.804-21.032 34.081-44.189 53.574-90.262 53.574-.171 0-.354 0-.524-.001-78.655 0-125.657 36.702-125.657 72.185 0 14.698 7.804 27.535 21.974 36.147 13.148 7.991 31.14 12.043 53.475 12.043 49.843 0 93.521-5.69 133.527-17.397 14.388-4.21 28.333-9.268 41.828-15.113.202-4.18.311-8.385.311-12.615 0-6.711-.261-13.361-.768-19.942z" fill="#c9001c"/><path d="m186 221c-24.813 0-45 20.187-45 45s20.187 45 45 45 45-20.187 45-45-20.187-45-45-45z" fill="#ff1f3e"/></g><g><circle cx="241" cy="326" fill="#ff1f3e" r="15"/></g></g></svg>