<svg id="Capa_1" enable-background="new 0 0 512 512" height="512" viewBox="0 0 512 512" width="512" xmlns="http://www.w3.org/2000/svg"><g><path d="m511.551 241c-1.2-20.76-4.868-40.857-10.725-60l-11.286-30c-8.038-17.851-18.073-34.606-29.802-50l-26.795-30c-45.97-43.98-108.3-71-176.943-71s-130.973 27.02-176.943 71l-26.795 30c-11.73 15.394-21.764 32.149-29.802 50l-11.286 30c-5.857 19.143-9.525 39.24-10.725 60v30c1.411 24.409 6.243 47.897 14.021 70l12.769 30c5.253 10.429 11.2 20.448 17.777 30l24.161 30c46.709 49.845 113.123 81 186.823 81s140.114-31.155 186.823-81l24.161-30c6.577-9.552 12.524-19.571 17.777-30l12.769-30c7.778-22.103 12.61-45.591 14.021-70z" fill="#8cbcff"/><path d="m500.826 181-11.286-30c-8.038-17.851-18.073-34.606-29.802-50l-26.795-30c-45.97-43.98-108.3-71-176.943-71v512c73.7 0 140.114-31.155 186.823-81l24.161-30c6.577-9.552 12.524-19.571 17.777-30l12.769-30c7.778-22.103 12.61-45.591 14.021-70v-30c-1.2-20.76-4.868-40.857-10.725-60z" fill="#4895ff"/><g><path d="m311 356c0-8.284-6.716-15-15-15h-281.53c3.631 10.319 7.901 20.335 12.769 30h268.761c8.284 0 15-6.716 15-15z" fill="#4895ff"/><path d="m341 356c0 8.284 6.716 15 15 15h128.761c4.868-9.665 9.138-19.681 12.769-30h-141.53c-8.284 0-15 6.716-15 15z" fill="#046eff"/><path d="m131 256c0-8.284-6.716-15-15-15h-115.551c-.287 4.965-.449 9.963-.449 15s.162 10.035.449 15h115.551c8.284 0 15-6.716 15-15z" fill="#4895ff"/><path d="m511.551 241h-95.551c-8.284 0-15 6.716-15 15s6.716 15 15 15h95.551c.287-4.965.449-9.963.449-15s-.162-10.035-.449-15z" fill="#046eff"/><path d="m201 166c0-8.284-6.716-15-15-15h-163.54c-4.365 9.693-8.137 19.71-11.286 30h174.826c8.284 0 15-6.716 15-15z" fill="#4895ff"/><path d="m291 166c0 8.284 6.716 15 15 15h194.826c-3.148-10.29-6.921-20.307-11.286-30h-183.54c-8.284 0-15 6.716-15 15z" fill="#046eff"/><path d="m321 86c0 8.284 6.716 15 15 15h123.738c-8.145-10.689-17.101-20.725-26.795-30h-96.943c-8.284 0-15 6.716-15 15z" fill="#046eff"/><g fill="#4895ff"><path d="m291 86c0-8.284-6.716-15-15-15h-196.943c-9.694 9.275-18.651 19.311-26.795 30h223.738c8.284 0 15-6.716 15-15z"/><path d="m191 416c0-8.284-6.716-15-15-15h-130.984c7.303 10.606 15.383 20.633 24.161 30h106.823c8.284 0 15-6.716 15-15z"/><path d="m221 416c0 8.284 6.716 15 15 15h206.823c8.778-9.367 16.859-19.394 24.161-30h-230.984c-8.284 0-15 6.716-15 15z"/><path d="m356 241h-180c-8.284 0-15 6.716-15 15s6.716 15 15 15h180c8.284 0 15-6.716 15-15s-6.716-15-15-15z"/></g><path d="m311 356c0-8.284-6.716-15-15-15h-40v30h40c8.284 0 15-6.716 15-15z" fill="#046eff"/><path d="m291 86c0-8.284-6.716-15-15-15h-20v30h20c8.284 0 15-6.716 15-15z" fill="#046eff"/><path d="m466.984 401h-210.984v30h186.823c8.778-9.367 16.858-19.394 24.161-30z" fill="#046eff"/><path d="m371 256c0-8.284-6.716-15-15-15h-100v30h100c8.284 0 15-6.716 15-15z" fill="#046eff"/></g></g></svg>