<svg id="Capa_1" enable-background="new 0 0 512 512" height="512" viewBox="0 0 512 512" width="512" xmlns="http://www.w3.org/2000/svg"><g><circle cx="256" cy="256" fill="#f1f1f4" r="256"/><path d="m256 0v512c141.385 0 256-114.615 256-256s-114.615-256-256-256z" fill="#e2dff4"/><g><g><path d="m356 249c30.327 0 55-24.673 55-55s-24.673-55-55-55-55 24.673-55 55 24.673 55 55 55z" fill="#bebcdd"/><g fill="#e2dff4"><path d="m276 341c-30.327 0-55 24.673-55 55s24.673 55 55 55 55-24.673 55-55-24.673-55-55-55z"/><path d="m126 261c-30.327 0-55 24.673-55 55s24.673 55 55 55 55-24.673 55-55-24.673-55-55-55z"/><path d="m256 151c24.813 0 45-20.187 45-45s-20.187-45-45-45-45 20.187-45 45 20.187 45 45 45z"/><path d="m142 131c-24.813 0-45 20.187-45 45s20.187 45 45 45 45-20.187 45-45-20.187-45-45-45z"/></g><path d="m396 281c-24.813 0-45 20.187-45 45s20.187 45 45 45 45-20.187 45-45-20.187-45-45-45z" fill="#bebcdd"/><path d="m285 242c0-24.813-20.187-45-45-45s-45 20.187-45 45 20.187 45 45 45 45-20.187 45-45z" fill="#e2dff4"/><path d="m276 341c-7.055 0-13.797 1.35-20 3.781v102.438c6.203 2.431 12.945 3.781 20 3.781 30.327 0 55-24.673 55-55s-24.673-55-55-55z" fill="#bebcdd"/><path d="m301 106c0-24.813-20.187-45-45-45v90c24.813 0 45-20.187 45-45z" fill="#bebcdd"/><path d="m285 242c0-19.179-12.065-35.585-29-42.05v84.101c16.935-6.466 29-22.872 29-42.051z" fill="#bebcdd"/></g><circle cx="171" cy="411" fill="#e2dff4" r="15"/><circle cx="216" cy="326" fill="#e2dff4" r="15"/><circle cx="311" cy="299" fill="#bebcdd" r="15"/><circle cx="341" cy="101" fill="#bebcdd" r="15"/><circle cx="76" cy="236" fill="#e2dff4" r="15"/><circle cx="166" cy="96" fill="#e2dff4" r="15"/><circle cx="441" cy="231" fill="#bebcdd" r="15"/></g></g></svg>