<svg id="Capa_1" enable-background="new 0 0 512 512" height="512" viewBox="0 0 512 512" width="512" xmlns="http://www.w3.org/2000/svg"><g><g><path d="m488.426 291c1.705-11.485 2.574-23.176 2.574-35 0-33.349-7.062-65.864-20.989-96.643-2.03-4.486-6.133-7.69-10.977-8.573-4.843-.882-9.814.669-13.295 4.15l-290.804 290.805c-3.482 3.481-5.033 8.451-4.15 13.296.883 4.844 4.087 8.947 8.573 10.977 30.78 13.927 63.296 20.988 96.642 20.988 53.232 0 103.758-17.587 144.956-50l31.672-30c23.138-26.293 39.838-56.937 49.298-90z" fill="#ffed28"/><path d="m300.337 300.337-145.402 145.402c-3.482 3.481-5.033 8.451-4.15 13.296.883 4.844 4.087 8.947 8.573 10.977 30.78 13.927 63.296 20.988 96.642 20.988 53.232 0 103.758-17.587 144.956-50l20.565-19.479z" fill="#ffcd00"/><path d="m416 291c-8.284 0-15 6.716-15 15s6.716 15 15 15h65.927c2.806-9.806 4.988-19.82 6.5-30z" fill="#ffcd00"/><path d="m301 426c0 8.284 6.716 15 15 15h84.956c7.382-5.808 14.469-12.085 21.214-18.83 3.625-3.625 7.102-7.356 10.458-11.17h-116.628c-8.284 0-15 6.716-15 15z" fill="#ff9f22"/><path d="m432.628 411h-21.628l11.17 11.17c3.624-3.625 7.102-7.356 10.458-11.17z" fill="#ffcd00"/><path d="m496.871 15.133c-14.628-14.627-37.282-18.677-67.329-12.034-25.463 5.629-55.604 18.744-89.586 38.979-1.068.636-2.053 1.402-2.931 2.281l-292.666 292.665c-.879.879-1.645 1.864-2.282 2.931-20.235 33.983-33.349 64.124-38.978 89.586-6.643 30.048-2.594 52.702 12.034 67.329 10.099 10.1 24.063 15.13 41.53 15.13 24.6 0 56.149-9.978 93.635-29.823 58.158-30.789 124.627-82.186 187.161-144.72s113.929-129.001 144.719-187.16c33.936-64.101 39.017-110.841 14.693-135.164z" fill="#ff9f22"/><path d="m190.692 190.692-146.333 146.332c-.879.879-1.645 1.864-2.282 2.931-20.235 33.983-33.349 64.124-38.978 89.585-6.643 30.048-2.594 52.702 12.034 67.33 10.099 10.1 24.063 15.13 41.53 15.13 24.6 0 56.149-9.978 93.635-29.823 58.158-30.79 124.627-82.186 187.16-144.72z" fill="#ff7037"/><circle cx="366" cy="366" fill="#ff9f22" r="15"/><path d="m366 351c-4.142 0-7.892 1.679-10.606 4.393l21.213 21.213c2.714-2.714 4.393-6.464 4.393-10.606 0-8.284-6.716-15-15-15z" fill="#ffcd00"/></g><path d="m422.365 90.056c-44.419-44.531-103.502-69.056-166.365-69.056-62.771 0-121.784 24.444-166.17 68.83-3.625 3.625-7.102 7.356-10.458 11.17l-22.462 30c-8.005 12.695-14.738 26.081-20.13 40l-9.328 30c-3.112 13.036-5.116 26.406-5.966 40v30c.851 13.594 2.856 26.964 5.969 40l9.331 30c11.689 30.16 29.669 57.822 53.271 81.364 2.878 2.87 6.711 4.38 10.598 4.38 2.241 0 4.5-.502 6.604-1.534 25.311-12.421 93.557-50.688 180.413-137.539 86.853-86.859 125.119-155.104 137.539-180.414 2.822-5.753 1.679-12.664-2.846-17.201z" fill="#ffed28"/><path d="m89.83 89.83c-3.625 3.625-7.102 7.356-10.458 11.17l-22.462 30c-8.005 12.695-14.738 26.081-20.13 40l-9.328 30c-3.112 13.036-5.116 26.406-5.966 40v30c.851 13.594 2.856 26.964 5.969 40l9.331 30c11.689 30.16 29.669 57.822 53.271 81.364 2.878 2.87 6.711 4.38 10.598 4.38 2.241 0 4.5-.502 6.604-1.534 25.311-12.421 93.557-50.688 180.413-137.539z" fill="#ffcd00"/><g fill="#ff9f22"><path d="m121 326c0-8.284-6.716-15-15-15h-78.545c2.442 10.224 5.55 20.245 9.331 30h69.214c8.284 0 15-6.716 15-15z"/><path d="m111 256c0-8.284-6.716-15-15-15h-74.515c-.311 4.973-.485 9.973-.485 15s.174 10.027.486 15h74.514c8.284 0 15-6.716 15-15z"/><path d="m131 186c0-8.284-6.716-15-15-15h-79.221c-3.779 9.756-6.887 19.776-9.328 30h88.549c8.284 0 15-6.716 15-15z"/><path d="m161 116c0-8.284-6.716-15-15-15h-66.628c-8.332 9.468-15.837 19.494-22.462 30h89.09c8.284 0 15-6.716 15-15z"/></g><path d="m161 116c0-8.284-6.716-15-15-15h-45l30 30h15c8.284 0 15-6.716 15-15z" fill="#ffcd00"/><circle cx="296" cy="156" fill="#ffcd00" r="15"/><circle cx="186" cy="256" fill="#ff9f22" r="15"/><circle cx="236" cy="106" fill="#ffcd00" r="15"/></g></svg>