<svg id="Capa_1" enable-background="new 0 0 512 512" height="512" viewBox="0 0 512 512" width="512" xmlns="http://www.w3.org/2000/svg"><g><path d="m511.551 241c-1.2-20.76-4.868-40.857-10.725-60l-11.286-30c-8.038-17.851-18.073-34.606-29.802-50l-26.795-30c-45.97-43.98-108.3-71-176.943-71s-130.973 27.02-176.943 71l-26.795 30c-11.73 15.394-21.764 32.149-29.802 50l-11.285 30c-5.857 19.143-9.525 39.24-10.725 60v30c1.411 24.409 6.242 47.897 14.021 70l12.769 30c5.253 10.429 11.2 20.448 17.777 30l24.161 30c46.708 49.845 113.122 81 186.822 81s140.114-31.155 186.823-81l24.161-30c6.577-9.552 12.524-19.571 17.777-30l12.769-30c7.778-22.103 12.61-45.591 14.021-70z" fill="#44ffe8"/><g fill="#00ddc2"><path d="m500.826 181-11.286-30c-8.038-17.851-18.073-34.606-29.802-50l-26.795-30c-45.97-43.98-108.3-71-176.943-71v512c73.7 0 140.114-31.155 186.823-81l24.161-30c6.577-9.552 12.524-19.571 17.777-30l12.769-30c7.778-22.103 12.61-45.591 14.021-70v-30c-1.2-20.76-4.868-40.857-10.725-60z"/><path d="m27.239 371h457.522c4.868-9.665 9.138-19.681 12.769-30h-483.06c3.631 10.319 7.9 20.335 12.769 30z"/><path d="m511.551 241h-511.102c-.287 4.965-.449 9.963-.449 15s.162 10.035.449 15h511.102c.287-4.965.449-9.963.449-15s-.162-10.035-.449-15z"/><path d="m489.54 151h-467.08c-4.365 9.693-8.137 19.71-11.285 30h489.652c-3.15-10.29-6.922-20.307-11.287-30z"/><path d="m432.943 71h-353.886c-9.694 9.275-18.651 19.311-26.795 30h407.476c-8.145-10.689-17.101-20.725-26.795-30z"/><path d="m69.177 431h373.646c8.778-9.367 16.859-19.394 24.161-30h-421.968c7.303 10.606 15.383 20.633 24.161 30z"/></g><path d="m484.761 371c4.868-9.665 9.138-19.681 12.769-30h-241.53v30z" fill="#00b6bd"/><path d="m512 256c0-5.037-.162-10.035-.449-15h-255.551v30h255.551c.287-4.965.449-9.963.449-15z" fill="#00b6bd"/><path d="m489.54 151h-233.54v30h244.826c-3.149-10.29-6.921-20.307-11.286-30z" fill="#00b6bd"/><path d="m432.943 71h-176.943v30h203.738c-8.145-10.689-17.101-20.725-26.795-30z" fill="#00b6bd"/><path d="m442.823 431c8.778-9.367 16.859-19.394 24.161-30h-210.984v30z" fill="#00b6bd"/></g></svg>