<svg id="Capa_1" enable-background="new 0 0 512 512" height="512" viewBox="0 0 512 512" width="512" xmlns="http://www.w3.org/2000/svg"><g><path d="m451.715 421c7.967-9.441 15.263-19.464 21.815-30l16.01-30c4.365-9.693 8.137-19.71 11.286-30l7.228-30c1.741-9.817 2.909-19.831 3.497-30v-30c-.588-10.169-1.756-20.183-3.497-30l-7.228-30c-3.148-10.29-6.921-20.307-11.286-30l-16.01-30c-45.174-72.636-125.697-121-217.53-121-63.271 0-121.17 22.966-165.846 61l-29.869 30c-7.967 9.441-15.263 19.464-21.815 30l-16.01 30c-4.365 9.693-8.137 19.71-11.285 30l-7.228 30c-1.741 9.817-2.909 19.831-3.497 30v30c.588 10.169 1.756 20.183 3.497 30l7.228 30c3.148 10.29 6.92 20.307 11.285 30l16.01 30c45.174 72.636 125.697 121 217.53 121 63.271 0 121.17-22.966 165.846-61z" fill="#ff9f22"/><path d="m508.054 211-7.228-30c-3.148-10.29-6.921-20.307-11.286-30l-16.01-30c-45.174-72.636-125.697-121-217.53-121v512c63.271 0 121.17-22.966 165.846-61l29.869-30c7.967-9.441 15.263-19.464 21.815-30l16.01-30c4.365-9.693 8.137-19.71 11.286-30l7.228-30c1.741-9.817 2.909-19.831 3.497-30v-30c-.588-10.169-1.756-20.183-3.497-30z" fill="#ff7037"/><g><path d="m361 196c0-8.284-6.716-15-15-15h-100c-8.284 0-15 6.716-15 15s6.716 15 15 15h100c8.284 0 15-6.716 15-15z" fill="#ff7037"/><path d="m296 151c8.284 0 15-6.716 15-15s-6.716-15-15-15h-20c-8.284 0-15 6.716-15 15s6.716 15 15 15z" fill="#ff1f3e"/><path d="m236 91h80c8.284 0 15-6.716 15-15s-6.716-15-15-15h-80c-8.284 0-15 6.716-15 15s6.716 15 15 15z" fill="#ff7037"/><path d="m276 301h-100c-8.284 0-15 6.716-15 15s6.716 15 15 15h100c8.284 0 15-6.716 15-15s-6.716-15-15-15z" fill="#ff7037"/><path d="m231 376c0 8.284 6.716 15 15 15h80c8.284 0 15-6.716 15-15s-6.716-15-15-15h-80c-8.284 0-15 6.716-15 15z" fill="#ff7037"/><g fill="#ff1f3e"><path d="m346 181h-90v30h90c8.284 0 15-6.716 15-15s-6.716-15-15-15z"/><path d="m331 76c0-8.284-6.716-15-15-15h-60v30h60c8.284 0 15-6.716 15-15z"/><path d="m276 331c8.284 0 15-6.716 15-15s-6.716-15-15-15h-20v30z"/><path d="m326 391c8.284 0 15-6.716 15-15s-6.716-15-15-15h-70v30z"/></g><path d="m236 421h-40c-8.284 0-15 6.716-15 15s6.716 15 15 15h40c8.284 0 15-6.716 15-15s-6.716-15-15-15z" fill="#ff7037"/><path d="m251 256c0-8.284-6.716-15-15-15h-235.551c-.287 4.965-.449 9.963-.449 15s.162 10.035.449 15h235.551c8.284 0 15-6.716 15-15z" fill="#ff7037"/><path d="m291 256c0 8.284 6.716 15 15 15h205.551c.287-4.965.449-9.963.449-15s-.162-10.035-.449-15h-205.551c-8.284 0-15 6.716-15 15z" fill="#ff1f3e"/><path d="m341 136c0 8.284 6.716 15 15 15h133.54c-4.678-10.39-10.041-20.403-16.01-30h-117.53c-8.284 0-15 6.716-15 15z" fill="#ff1f3e"/><path d="m391 196c0 8.284 6.716 15 15 15h102.054c-1.813-10.224-4.24-20.234-7.228-30h-94.826c-8.284 0-15 6.716-15 15z" fill="#ff1f3e"/><path d="m201 196c0-8.284-6.716-15-15-15h-174.826c-2.988 9.766-5.415 19.776-7.228 30h182.054c8.284 0 15-6.716 15-15z" fill="#ff7037"/><path d="m131 316c0-8.284-6.716-15-15-15h-112.054c1.813 10.224 4.24 20.234 7.228 30h104.826c8.284 0 15-6.716 15-15z" fill="#ff7037"/><path d="m321 316c0 8.284 6.716 15 15 15h164.826c2.988-9.766 5.415-19.776 7.228-30h-172.054c-8.284 0-15 6.716-15 15z" fill="#ff1f3e"/><path d="m231 136c0-8.284-6.716-15-15-15h-177.531c-5.969 9.597-11.331 19.61-16.01 30h193.541c8.284 0 15-6.716 15-15z" fill="#ff7037"/><path d="m371 376c0 8.284 6.716 15 15 15h87.531c5.969-9.597 11.331-19.61 16.01-30h-103.541c-8.284 0-15 6.716-15 15z" fill="#ff1f3e"/><path d="m201 376c0-8.284-6.716-15-15-15h-163.54c4.678 10.39 10.041 20.403 16.01 30h147.53c8.284 0 15-6.716 15-15z" fill="#ff7037"/><path d="m281 436c0 8.284 6.716 15 15 15h125.846c10.762-9.162 20.753-19.198 29.869-30h-155.715c-8.284 0-15 6.716-15 15z" fill="#ff1f3e"/><path d="m191 76c0-8.284-6.716-15-15-15h-85.846c-10.762 9.162-20.753 19.198-29.869 30h115.715c8.284 0 15-6.716 15-15z" fill="#ff7037"/></g></g></svg>